<svg width="107" height="107" viewBox="0 0 107 107" fill="none" xmlns="http://www.w3.org/2000/svg">
<path d="M54.8605 46.8862C51.8411 50.1853 46.7189 50.4119 43.4198 47.3925C40.1208 44.373 39.8941 39.2509 42.9136 35.9518C45.8242 32.7717 50.8998 32.0803 57.404 33.0605C57.7539 35.1294 57.8614 37.7029 57.5308 40.1809C57.1739 42.8565 56.3251 45.286 54.8605 46.8862Z" stroke="white" stroke-width="2.08984"/>
<path d="M52.3746 26.8481C55.5369 23.6857 60.6641 23.6857 63.8264 26.8481C66.9888 30.0104 66.9888 35.1376 63.8264 38.2999C60.7781 41.3483 55.6768 41.8146 49.2223 40.5479C48.9642 38.4655 48.9706 35.8898 49.4104 33.4288C49.8852 30.7715 50.8407 28.382 52.3746 26.8481Z" stroke="white" stroke-width="2.08984"/>
<path d="M48.1958 28.8398L47.0464 35.3184" stroke="#002550" stroke-width="2.08984"/>
<path d="M59.7944 38.6621L59.063 43.3643" stroke="#002550" stroke-width="2.08984"/>
<path d="M29.2552 78.3359H20.829V77.3194C21.6136 77.3194 22.1843 77.257 22.541 77.1322C22.8976 76.9895 23.1205 76.7309 23.2097 76.3564C23.3167 75.9641 23.3702 75.3845 23.3702 74.6177V64.5329C23.3702 63.8196 23.3167 63.2668 23.2097 62.8744C23.1205 62.4821 22.8976 62.2057 22.541 62.0452C22.1843 61.8669 21.6136 61.7777 20.829 61.7777V60.7612H29.3087V61.7777C28.5062 61.7777 27.9177 61.8669 27.5432 62.0452C27.1865 62.2057 26.9636 62.491 26.8745 62.9012C26.8031 63.2935 26.7675 63.8374 26.7675 64.5329V74.6177C26.7675 75.3667 26.812 75.9374 26.9012 76.3297C27.0082 76.722 27.2311 76.9895 27.57 77.1322C27.9266 77.257 28.4884 77.3194 29.2552 77.3194V78.3359ZM47.9994 78.5232H45.7257L35.1862 64.5329H34.3034L33.6079 63.3292C33.2869 62.8834 32.9927 62.5534 32.7252 62.3394C32.4755 62.1254 32.208 61.9828 31.9227 61.9114C31.6552 61.8223 31.3253 61.7777 30.9329 61.7777V60.7612H36.6574L46.2339 73.4674H46.3677V65.2284C46.3677 64.4794 46.3231 63.8553 46.2339 63.3559C46.1448 62.8388 45.9218 62.4464 45.5652 62.1789C45.2263 61.9114 44.6468 61.7777 43.8264 61.7777V60.7612H50.4069V61.7777C49.6758 61.7777 49.1318 61.9114 48.7752 62.1789C48.4363 62.4464 48.2223 62.8477 48.1332 63.3827C48.044 63.8999 47.9994 64.5329 47.9994 65.2819V78.5232ZM37.4867 78.3359H30.9329V77.3194C31.6463 77.3194 32.1813 77.1411 32.5379 76.7844C32.8946 76.4099 33.1353 75.8928 33.2602 75.2329C33.385 74.5731 33.4474 73.7974 33.4474 72.9057V62.6337H35.0524V74.1362C35.0524 75.0279 35.1148 75.7055 35.2397 76.1692C35.3645 76.615 35.6053 76.9182 35.9619 77.0787C36.3186 77.2392 36.8268 77.3194 37.4867 77.3194V78.3359ZM60.5289 78.3359H51.9956V77.3194C52.6733 77.3194 53.1815 77.2659 53.5204 77.1589C53.877 77.0519 54.1178 76.8201 54.2426 76.4634C54.3675 76.1068 54.4299 75.5539 54.4299 74.8049V63.8374C54.4299 63.3024 54.3764 62.8923 54.2694 62.6069C54.1624 62.3038 53.9305 62.0898 53.5739 61.9649C53.235 61.8401 52.709 61.7777 51.9956 61.7777V60.7612H59.9136C61.1976 60.7612 62.3657 60.8949 63.4179 61.1624C64.4879 61.4299 65.335 61.8936 65.9591 62.5534C66.5833 63.1954 66.8954 64.0871 66.8954 65.2284C66.8954 66.2093 66.6814 67.0118 66.2534 67.6359C65.8432 68.2423 65.3082 68.7149 64.6484 69.0537C64.0064 69.3925 63.3109 69.6511 62.5619 69.8294V69.9632C62.8472 70.1415 63.1593 70.4358 63.4981 70.8459C63.8548 71.2561 64.3185 71.8714 64.8891 72.6917C65.4598 73.4942 66.2266 74.582 67.1896 75.9552C67.6176 76.5437 68.0367 76.9182 68.4469 77.0787C68.8749 77.2392 69.392 77.3194 69.9984 77.3194V78.3359H64.5414C63.8994 77.2481 63.3644 76.3475 62.9364 75.6342C62.5084 74.9209 62.1428 74.3324 61.8396 73.8687C61.5365 73.3872 61.26 72.9592 61.0104 72.5847C60.7785 72.1924 60.5289 71.7911 60.2614 71.3809C60.0117 70.9708 59.771 70.7211 59.5391 70.6319C59.3073 70.5249 58.9595 70.4714 58.4959 70.4714H57.8806V74.8317C57.8806 75.545 57.943 76.0889 58.0679 76.4634C58.1927 76.8201 58.4424 77.0519 58.8169 77.1589C59.1914 77.2659 59.762 77.3194 60.5289 77.3194V78.3359ZM57.8806 69.2677L58.8971 69.2944C59.8245 69.2409 60.6091 69.0894 61.2511 68.8397C61.911 68.59 62.4103 68.1888 62.7491 67.6359C63.1058 67.0831 63.2841 66.3252 63.2841 65.3622C63.2841 64.3279 62.9899 63.5075 62.4014 62.9012C61.8129 62.277 60.8588 61.9649 59.5391 61.9649C59.2538 61.9649 58.9685 61.9739 58.6831 61.9917C58.4156 61.9917 58.1481 62.0095 57.8806 62.0452V69.2677ZM85.6772 78.3359H70.724V77.3194C71.3838 77.3194 71.8921 77.2749 72.2487 77.1857C72.6232 77.0787 72.8818 76.8647 73.0245 76.5437C73.185 76.2227 73.2652 75.7234 73.2652 75.0457V64.2387C73.2652 63.561 73.2028 63.0528 73.078 62.7139C72.971 62.3573 72.7302 62.1165 72.3557 61.9917C71.9991 61.8669 71.4551 61.8044 70.724 61.8044V60.7612H85.4097L85.5702 65.4424H84.3932C84.2684 64.6043 84.0811 63.9534 83.8315 63.4897C83.5996 63.026 83.2162 62.705 82.6812 62.5267C82.1641 62.3484 81.3883 62.2592 80.354 62.2592H76.6625V68.6524H79.3375C80.1935 68.6524 80.8266 68.5989 81.2367 68.4919C81.6647 68.3849 81.9411 68.162 82.066 67.8232C82.2086 67.4665 82.28 66.9404 82.28 66.2449H83.3767V72.4242H82.28C82.28 71.6752 82.2086 71.1313 82.066 70.7924C81.9411 70.4358 81.6647 70.2129 81.2367 70.1237C80.8266 70.0167 80.1935 69.9632 79.3375 69.9632H76.6625V76.8647H79.926C80.8711 76.8647 81.638 76.8201 82.2265 76.7309C82.815 76.6239 83.2876 76.4367 83.6442 76.1692C84.0009 75.9017 84.2951 75.5272 84.527 75.0457C84.7588 74.5642 84.9906 73.94 85.2225 73.1732H86.346L85.6772 78.3359Z" fill="white"/>
<line x1="20.4805" y1="84.8623" x2="25.9141" y2="84.8623" stroke="white" stroke-width="0.208984"/>
<path d="M29.0136 85.9668V85.7333H29.4119V83.7431H29.0136V83.5096H30.1711V83.7431H29.7956V85.7333H30.1711V85.9668H29.0136ZM30.61 85.9668V85.7333H31.0035V83.7431H30.61V83.5096H31.4917L32.6525 85.5325V83.7431H32.2541V83.5096H33.3382V83.7431H32.9643V85.9668H32.5284L31.3153 83.8574V85.7333H31.6892V85.9668H30.61ZM33.7526 85.9668V85.7333H34.1461V83.7431H33.7526V83.5096H34.6343L35.7951 85.5325V83.7431H35.3967V83.5096H36.4808V83.7431H36.1069V85.9668H35.671L34.4579 83.8574V85.7333H34.8318V85.9668H33.7526ZM38.1393 86.0109C37.9913 86.0109 37.8531 85.9875 37.7246 85.9407C37.5962 85.8928 37.4857 85.8269 37.3932 85.7431C37.3039 85.6615 37.2272 85.5662 37.163 85.4574C37.0998 85.3475 37.0536 85.2315 37.0242 85.1096C36.9937 84.9888 36.9785 84.8642 36.9785 84.7357C36.9785 84.4702 37.04 84.2302 37.163 84.0157C37.2283 83.9025 37.3061 83.8057 37.3964 83.7251C37.4879 83.6435 37.5956 83.5787 37.7197 83.5308C37.8503 83.4829 37.9902 83.459 38.1393 83.459C38.2874 83.459 38.4256 83.4829 38.554 83.5308C38.6836 83.5787 38.794 83.6446 38.8855 83.7284C38.9747 83.81 39.0509 83.9058 39.114 84.0157C39.1772 84.1246 39.224 84.24 39.2544 84.3619C39.2838 84.4838 39.2985 84.6084 39.2985 84.7357C39.2985 85.0013 39.237 85.2413 39.114 85.4558C39.0487 85.569 38.9709 85.6658 38.8806 85.7464C38.7902 85.8269 38.683 85.8906 38.5589 85.9374C38.4305 85.9864 38.2906 86.0109 38.1393 86.0109ZM38.1393 85.7823C38.2536 85.7823 38.3586 85.7535 38.4544 85.6958C38.5513 85.637 38.6308 85.557 38.6928 85.4558C38.7538 85.3578 38.8 85.2473 38.8316 85.1243C38.8642 85.0002 38.8806 84.8718 38.8806 84.739C38.8806 84.6323 38.8702 84.5284 38.8495 84.4272C38.8299 84.3259 38.7995 84.2318 38.7581 84.1447C38.6678 83.9531 38.5486 83.8204 38.4006 83.7463C38.3211 83.7072 38.234 83.6876 38.1393 83.6876C38.025 83.6876 37.92 83.7169 37.8242 83.7757C37.7284 83.8334 37.649 83.9129 37.5858 84.0141C37.5249 84.1131 37.4781 84.2247 37.4454 84.3488C37.4128 84.4718 37.3964 84.5997 37.3964 84.7325C37.3964 84.9578 37.4378 85.157 37.5205 85.33C37.5641 85.4237 37.6147 85.5037 37.6724 85.5701C37.7311 85.6354 37.7997 85.6865 37.8781 85.7235C37.9586 85.7627 38.0457 85.7823 38.1393 85.7823ZM40.8672 86.0239C40.8095 86.0239 40.7627 86.0065 40.7268 85.9717C40.692 85.9369 40.6599 85.8775 40.6305 85.7937L39.8941 83.7431H39.5203V83.5096H40.6909V83.7431H40.3464L40.9407 85.4884L41.517 83.7431H41.0844V83.5096H42.1913V83.7431H41.7946L41.0909 85.7937C41.0702 85.8525 41.0501 85.8982 41.0305 85.9309C41.012 85.9635 40.9897 85.9869 40.9635 86.0011C40.9385 86.0163 40.9064 86.0239 40.8672 86.0239ZM41.9412 85.9668V85.7333H42.2351L43.0955 83.5096H43.4825L44.356 85.7333H44.6302V85.9668H43.5739V85.7333H43.938L43.711 85.1439H42.7673L42.5535 85.7333H42.9649V85.9668H41.9412ZM42.8441 84.9366H43.6294L43.2261 83.8296L42.8441 84.9366ZM45.1736 85.9668V85.7333H45.554V83.7431H44.9287V84.5023H44.625V83.5096H46.8553V84.5023H46.55V83.7431H45.9393V85.7333H46.3295V85.9668H45.1736ZM47.2958 85.9668V85.7333H47.6942V83.7431H47.2958V83.5096H48.4534V83.7431H48.0778V85.7333H48.4534V85.9668H47.2958ZM50.1363 86.0109C49.9883 86.0109 49.8501 85.9875 49.7216 85.9407C49.5932 85.8928 49.4827 85.8269 49.3902 85.7431C49.3009 85.6615 49.2242 85.5662 49.16 85.4574C49.0969 85.3475 49.0506 85.2315 49.0212 85.1096C48.9907 84.9888 48.9755 84.8642 48.9755 84.7357C48.9755 84.4702 49.037 84.2302 49.16 84.0157C49.2253 83.9025 49.3031 83.8057 49.3935 83.7251C49.4849 83.6435 49.5926 83.5787 49.7167 83.5308C49.8473 83.4829 49.9872 83.459 50.1363 83.459C50.2844 83.459 50.4226 83.4829 50.551 83.5308C50.6806 83.5787 50.791 83.6446 50.8825 83.7284C50.9717 83.81 51.0479 83.9058 51.111 84.0157C51.1742 84.1246 51.221 84.24 51.2515 84.3619C51.2808 84.4838 51.2955 84.6084 51.2955 84.7357C51.2955 85.0013 51.234 85.2413 51.111 85.4558C51.0457 85.569 50.9679 85.6658 50.8776 85.7464C50.7872 85.8269 50.68 85.8906 50.5559 85.9374C50.4275 85.9864 50.2876 86.0109 50.1363 86.0109ZM50.1363 85.7823C50.2506 85.7823 50.3557 85.7535 50.4514 85.6958C50.5483 85.637 50.6278 85.557 50.6898 85.4558C50.7508 85.3578 50.797 85.2473 50.8286 85.1243C50.8612 85.0002 50.8776 84.8718 50.8776 84.739C50.8776 84.6323 50.8672 84.5284 50.8465 84.4272C50.827 84.3259 50.7965 84.2318 50.7551 84.1447C50.6648 83.9531 50.5456 83.8204 50.3976 83.7463C50.3181 83.7072 50.231 83.6876 50.1363 83.6876C50.022 83.6876 49.917 83.7169 49.8212 83.7757C49.7254 83.8334 49.646 83.9129 49.5828 84.0141C49.5219 84.1131 49.4751 84.2247 49.4424 84.3488C49.4098 84.4718 49.3935 84.5997 49.3935 84.7325C49.3935 84.9578 49.4348 85.157 49.5175 85.33C49.5611 85.4237 49.6117 85.5037 49.6694 85.5701C49.7282 85.6354 49.7967 85.6865 49.8751 85.7235C49.9556 85.7627 50.0427 85.7823 50.1363 85.7823ZM51.8226 85.9668V85.7333H52.2161V83.7431H51.8226V83.5096H52.7042L53.8651 85.5325V83.7431H53.4667V83.5096H54.5508V83.7431H54.1769V85.9668H53.741L52.5279 83.8574V85.7333H52.9018V85.9668H51.8226ZM56.0783 85.9668V85.7333H56.4767V83.7431H56.0783V83.5096H57.2359V83.7431H56.8604V85.7333H57.2359V85.9668H56.0783ZM57.6748 85.9668V85.7333H58.0683V83.7431H57.6748V83.5096H58.5564L59.7173 85.5325V83.7431H59.3189V83.5096H60.403V83.7431H60.0291V85.9668H59.5932L58.3801 83.8574V85.7333H58.754V85.9668H57.6748ZM63.9747 86.0207C63.9083 86.0207 63.8479 86.0087 63.7935 85.9848C63.7401 85.9619 63.695 85.9298 63.6579 85.8884C63.6231 85.8503 63.5916 85.7981 63.5633 85.7317C63.535 85.6653 63.511 85.5929 63.4914 85.5145C63.4696 85.4253 63.4511 85.3366 63.4359 85.2484C63.4261 85.1864 63.4092 85.1292 63.3853 85.077C63.3613 85.0247 63.3358 84.9845 63.3086 84.9562C63.2824 84.93 63.2547 84.9077 63.2253 84.8892C63.1959 84.8707 63.1714 84.8587 63.1518 84.8533C63.1344 84.8489 63.1181 84.8468 63.1028 84.8468H62.7175V85.7333H63.0881V85.9668H61.9355V85.7333H62.3322V83.7431H61.9355V83.5096H62.8743H62.951C63.0228 83.5096 63.0827 83.5107 63.1306 83.5129C63.1796 83.515 63.2411 83.5194 63.3151 83.5259C63.4054 83.5346 63.4794 83.5466 63.5371 83.5618C63.5959 83.5771 63.6612 83.601 63.7331 83.6337C63.8016 83.6652 63.856 83.7033 63.8963 83.748C63.9377 83.7915 63.9725 83.8487 64.0008 83.9194C64.028 83.988 64.0416 84.0674 64.0416 84.1578C64.0416 84.3483 63.9823 84.4903 63.8637 84.5839C63.806 84.6285 63.7434 84.665 63.6759 84.6933C63.6084 84.7205 63.5273 84.7439 63.4326 84.7635C63.4958 84.7766 63.5486 84.7945 63.591 84.8174C63.6335 84.8402 63.6694 84.8702 63.6988 84.9072C63.726 84.9431 63.7477 84.9812 63.7641 85.0215C63.7815 85.0617 63.7994 85.1151 63.818 85.1815C63.8321 85.2348 63.8522 85.323 63.8784 85.446C63.8849 85.483 63.8947 85.5211 63.9077 85.5603C63.9208 85.5994 63.9339 85.6299 63.9469 85.6517C63.9611 85.6756 63.979 85.6952 64.0008 85.7105C64.0226 85.7257 64.0471 85.7333 64.0743 85.7333C64.1864 85.7333 64.2425 85.6305 64.2425 85.4247V85.1978H64.4629V85.4378C64.4629 85.8264 64.3001 86.0207 63.9747 86.0207ZM62.9216 84.6019C63.0968 84.6019 63.2389 84.5894 63.3477 84.5643C63.4566 84.5382 63.5415 84.4947 63.6024 84.4337C63.6656 84.3717 63.6971 84.2895 63.6971 84.1872C63.6971 84.099 63.6813 84.0261 63.6498 83.9684C63.6182 83.9107 63.5681 83.865 63.4996 83.8312C63.4321 83.7997 63.3521 83.7774 63.2596 83.7643C63.1681 83.7501 63.0511 83.7431 62.9085 83.7431H62.7175V84.6019H62.9216ZM64.856 85.9668V85.7333H65.2577V83.7431H64.856V83.5096H67.0765V84.4549H66.781V83.7431H65.6413V84.6264H66.2503V84.2247H66.4675V85.2386H66.2503V84.8125H65.6413V85.7333H66.781V85.0345H67.0765V85.9668H64.856ZM67.5725 85.9668V85.7333H67.8664L68.7268 83.5096H69.1137L69.9872 85.7333H70.2615V85.9668H69.2052V85.7333H69.5693L69.3423 85.1439H68.3986L68.1847 85.7333H68.5962V85.9668H67.5725ZM68.4754 84.9366H69.2607L68.8574 83.8296L68.4754 84.9366ZM70.6612 85.9668V85.7333H71.058V83.7431H70.6612V83.5096H71.8172V83.7431H71.4433V85.7333H72.3657V84.9464H72.6711V85.9668H70.6612ZM73.425 85.9668V85.7333H73.8054V83.7431H73.1801V84.5023H72.8764V83.5096H75.1067V84.5023H74.8014V83.7431H74.1908V85.7333H74.581V85.9668H73.425ZM76.1774 85.9668V85.7333H76.5742V84.9953L75.8688 83.7431H75.5358V83.5096H76.628V83.7431H76.2542L76.806 84.757L77.3742 83.7431H77.0101V83.5096H77.9995V83.7431H77.6909L76.9595 85.0035V85.7333H77.3334V85.9668H76.1774Z" fill="white"/>
<line x1="81.0859" y1="84.8623" x2="86.5195" y2="84.8623" stroke="white" stroke-width="0.208984"/>
</svg>
